<svg width="81" height="81" fill="none" xmlns="http://www.w3.org/2000/svg"><path fill="#fff" d="M.5.516h80v80H.5z"/><path d="M62.735 39.674S53.058 34.65 48.363 25.55c-4.694-9.1-12.436-15.978-21.536-14.042-9.1 1.935-13.795 18.324-7.989 18.324s4.983 5.024 4.983 5.024-11.571 10.089-9.8 19.395c1.77 9.348 13.341 17.666 24.254 14.372 10.912-3.212 39.902-19.354 24.46-28.949z" fill="#F15D4F"/><path d="M43.71 55.653c16.967-6.918-1.77-17.953-8.029-22.071-6.26-4.16-15.154-3.542-15.154-3.542 3.953.865 3.294 4.86 3.294 4.86s-3.83 3.335-6.712 7.906c4.9-.124 9.636 19.724 26.602 12.847z" fill="#F47E69"/><path d="M40.498 51.612a4.818 4.818 0 100-9.635 4.818 4.818 0 000 9.635z" fill="#E6E7E8"/><path d="M40.501 50.01a3.212 3.212 0 100-6.424 3.212 3.212 0 000 6.424z" fill="#414042"/><path d="M62.732 39.675s-4.53-2.347-8.853-6.753c0 0 3.788 5.847 6.836 9.018 3.047 3.17 5.106 7.206-10.048 17.254-15.195 10.048-31.502 6.63-36.237-3.46 2.635 8.69 13.547 16.02 23.883 12.89 10.872-3.212 39.861-19.354 24.42-28.949z" fill="#DB5447"/></svg>