<svg width="81" height="81" fill="none" xmlns="http://www.w3.org/2000/svg"><path fill="#fff" d="M.5.516h80v80H.5z"/><path d="M68.144 22.314s-2.94-8.488-10.917-9.41c-7.978-.922-21.796 3.725-31.645 1.46-9.886-2.267-15.727 3.456-14.123 23.504 1.603 20.048 2.214 28.19 14.39 30.303 12.177 2.112 32.332-6.337 39.203-16.669 6.871-10.33 4.81-25.886 3.092-29.189z" fill="#42BFB9"/><path d="M34.094 49.963c17.025 1.344 17.98-16.86 19.85-23.812.878-3.303-.993-8.565-3.207-13.135-7.787.768-17.635 3.072-25.193 1.344a20.245 20.245 0 00-2.023-.346c1.068 2.727 1.603 6.568.649 11.868-2.596 14.133-7.1 22.775 9.924 24.08z" fill="#5EC5BE"/><path d="M33.255 40.784c2.467 0 4.466-2.012 4.466-4.494 0-2.481-2-4.493-4.466-4.493s-4.466 2.012-4.466 4.493c0 2.482 2 4.494 4.466 4.494z" fill="#E6E7E8"/><path d="M33.259 39.288a2.987 2.987 0 002.977-2.995 2.987 2.987 0 00-2.977-2.996 2.987 2.987 0 00-2.978 2.996 2.987 2.987 0 002.978 2.995z" fill="#414042"/><path d="M11.42 37.905c1.566 20.01 2.214 28.19 14.391 30.303 8.322 1.46 20.384-2.074 29.355-7.72 0 0-23.782 5.838-33.02-1.037-7.939-5.876-10.115-31.839-6.221-43.553-3.703 3.073-5.459 9.948-4.505 22.007z" fill="#02ABA0"/></svg>