<svg width="81" height="81" fill="none" xmlns="http://www.w3.org/2000/svg"><path fill="#fff" d="M.5.516h80v80H.5z"/><path d="M54.485 61.048s9.382-6.27 11.484-17.487c2.103-11.217-1.323-19.318-4.165-20.097-2.88-.779-8.604 2.337-10.706 1.324-2.102-1.051-3.465-5.57-10.784-5.57-7.319 0-11.912 10.672-14.287 11.646-2.336.974-10.823-3.077-11.562 0-.623 2.687 1.518 20.408 13.002 26.055 2.258 1.13 5.022.195 6.151-2.064.974-1.947 2.842-3.972 6.307-3.972 6.735-.078-1.09 16.163 14.56 10.165z" fill="#F8BE37"/><path d="M51.095 24.75c-2.102-1.052-3.465-5.57-10.784-5.57-7.319 0-11.912 10.671-14.287 11.645-.506.195-1.246.195-2.18.078.973.155 4.633 1.051 8.564 5.297 4.555 4.946 6.93 9.58 13.548 7.75 9.733-2.687-.623-15.267 6.696-18.695.273-.116.506-.272.74-.39-.934.118-1.752.157-2.297-.116z" fill="#FFCE4B"/><path d="M42.961 38.809a4.556 4.556 0 004.555-4.557 4.556 4.556 0 10-4.555 4.557z" fill="#E6E7E8"/><path d="M42.959 37.287a3.037 3.037 0 10-.002-6.075 3.037 3.037 0 00.002 6.075z" fill="#414042"/><path d="M64.06 25.492c.31 6.582.116 17.838-4.439 23.213-6.657 7.828-10.861 11.8-12.925 6.971-2.063-4.868-4.36-10.593-11.173-3.272 1.052-.895 2.492-1.557 4.438-1.557 6.736 0-1.128 16.202 14.56 10.204 0 0 9.383-6.27 11.485-17.487 1.518-8.296.039-14.878-1.947-18.072z" fill="#F8B32B"/></svg>