<svg width="81" height="81" fill="none" xmlns="http://www.w3.org/2000/svg"><path fill="#fff" d="M.5.516h80v80H.5z"/><path d="M74.016 27.606s-2.743-1.554-4.298-5.806c-1.554-4.252-8.275-4.892-12.253-1.555-3.978 3.384-22.677 3.978-30.358 7.361-7.681 3.384-21.717 4.618-21.26 13.168.457 8.55 7.498 9.83 8.687 7.04 1.234-2.742 16.002 2.47 20.117 5.533 4.114 3.063 16.688 11.019 27.112 8.595 10.424-2.423 4.618-9.83 5.806-13.487 1.28-3.703 10.745-15.042 6.447-20.849z" fill="#D95D98"/><path d="M54.814 30.446c-8.138-4.16-22.037-1.6-32.187-1.189-7.635 2.378-17.1 4.48-16.734 11.567.412 8.596 7.498 9.83 8.687 7.041 0 0-2.652-4.16 5.258-7.59 7.91-3.428 10.378 6.676 22.951 9.74 12.574 3.063 24.415-13.26 12.025-19.57z" fill="#F05D96"/><path d="M49.467 45.574a5.35 5.35 0 100-10.7 5.35 5.35 0 000 10.7z" fill="#E6E7E8"/><path d="M49.465 43.789a3.566 3.566 0 100-7.133 3.566 3.566 0 000 7.133z" fill="#414042"/><path d="M67.612 51.52c-.183-1.143-.274-2.195 0-3.063 1.235-3.658 10.745-14.997 6.447-20.849 0 0-2.743-1.554-4.298-5.806-.96-2.652-3.886-3.887-6.95-3.658 8.642 1.555 3.704 12.665 1.418 16.688-6.127 10.744 3.383 16.688 3.383 16.688z" fill="#DB3D78"/></svg>