<svg width="300" height="300" fill="none" xmlns="http://www.w3.org/2000/svg"><path fill-rule="evenodd" clip-rule="evenodd" d="M145.474 226.293c57.847 0 104.741-46.894 104.741-104.741S203.321 16.81 145.474 16.81 40.732 63.705 40.732 121.552s46.894 104.741 104.742 104.741zm0 16.81c67.131 0 121.551-54.42 121.551-121.551S212.605 0 145.474 0C78.342 0 23.922 54.42 23.922 121.552c0 67.131 54.42 121.551 121.552 121.551z" fill="#F59F0D"/><path fill-rule="evenodd" clip-rule="evenodd" d="M145.474 243.103c67.131 0 121.551-54.42 121.551-121.551S212.605 0 145.474 0C78.342 0 23.922 54.42 23.922 121.552c0 67.131 54.42 121.551 121.552 121.551zm0-16.81c57.847 0 104.741-46.894 104.741-104.741S203.321 16.81 145.474 16.81 40.732 63.705 40.732 121.552s46.894 104.741 104.742 104.741z" fill="#F59F0D"/><path d="M69.82 113.79l54.311-87.93 32.621 54.416 12.088-21.434 26.786 44.791 11.716-21.262 27.996 45.644 25.862 41.379h-24.423l-21.133-32.295-23.115 3.382-22.052-34.845-12.079 19.792-11.753-19.792-21.221-34.518-12.285 9.158L69.82 113.79z" fill="#2B2A29"/><path d="M51.719 164.221l-21.983 11.638-15.517 8.405V299.35l126.724-23.276 93.103-35.56 52.365-9.699V104.516l-18.097 4.101-20.799 4.694-17.995 4.358-47.198 7.112-53.017 22.629-25.216-10.345-32.974 17.457-19.396 9.699z" fill="#2B2A29"/><path d="M58.133 201.741a31.93 31.93 0 01-5.612 18.787c-3.356 5.011-8.438 8.664-14.313 10.285a21.707 21.707 0 01-11.861.295v-11.721a13.015 13.015 0 0010.215 1.085 11.95 11.95 0 006.623-4.397 11.863 11.863 0 002.357-6.017l-12.067 3.33v-8.887l11.917-3.275a5.725 5.725 0 00-1.056-2.607 5.856 5.856 0 00-2.18-1.81 8.608 8.608 0 00-6.1-.257 19.517 19.517 0 00-9.728 6.458v-11.555a31.559 31.559 0 0111.918-6.367c5.862-1.619 10.645-.871 14.35 2.245 3.704 3.116 5.55 7.919 5.537 14.408zm40.783 11.202l-12.123 3.33v-17.167l-12.404 3.422v17.168l-12.123 3.33v-43.37l12.123-3.33v16.211l12.404-3.404v-16.248l12.123-3.33v43.388zm30.761-8.463l-24.771 6.827v-43.315l24.771-6.734v10.801l-12.647 3.478v5.63l11.693-3.349v10.212l-11.712 3.22v5.87l12.647-3.477.019 10.837zm36.841-38.755a17.674 17.674 0 01-3.742 11.408 20.274 20.274 0 01-10.833 6.642l-5.163 1.417v14.592l-12.124 3.33v-43.333l16.296-4.489c5.201-1.436 9.148-1.141 11.842.883 2.483 1.877 3.724 5.06 3.724 9.55zm-12.404 3.073c0-3.104-1.703-4.19-5.108-3.257l-2.245.607v9.31l2.133-.588c3.48-.945 5.22-2.969 5.22-6.072zm40.389-14.679l-11.973 3.293v32.514l-12.124 3.33V149.96l24.097-6.624v10.783zm41.869 20.993l-12.067 3.312V154.08l-14.611 28.374-11.506 3.165v-43.37l12.011-3.312v24.748l14.742-28.796 11.431-3.147v43.37zm36.487-10.045l-12.068 3.331v-15.125l-.692.184-7.221 17.112-13.097 3.68 8.887-18.584c-5.201-.295-7.802-3.76-7.802-10.396a17.736 17.736 0 011.317-7.079 17.958 17.958 0 014.034-6.004 22.732 22.732 0 0110.309-5.962l16.295-4.49.038 43.333zm-12.068-20.461v-9.715l-2.488.681c-3.505.969-5.257 3.042-5.257 6.219 0 3.177 1.752 4.342 5.257 3.496l2.488-.681zM59.84 262.162a15.44 15.44 0 01-3.48 10.028 21.462 21.462 0 01-11.376 6.845l-17.867 4.913v-43.333l17.081-4.692c4.179-1.154 7.372-.89 9.58.791a7.88 7.88 0 012.244 2.991c.494 1.158.7 2.417.6 3.67a12.218 12.218 0 01-1.414 5.583 12.444 12.444 0 01-3.825 4.353 8.124 8.124 0 013.328.415 8.042 8.042 0 012.864 1.719 9.197 9.197 0 012.264 6.717zM45.638 248.84c0-2.638-1.46-3.558-4.378-2.76l-2.189.607v7.912l1.347-.368c3.48-.957 5.22-2.754 5.22-5.391zm1.87 16.045c0-2.883-1.59-3.883-4.77-2.999l-3.61.993v8.28l3.124-.864a8.587 8.587 0 003.742-1.969 4.6 4.6 0 001.1-1.569c.25-.592.373-1.23.359-1.872h.056zm48.208-14.206a17.197 17.197 0 01-1.255 6.789 17.416 17.416 0 01-3.834 5.778 23.517 23.517 0 01-10.85 6.183l-15.043 4.066v-43.241l12.124-3.33v15.511l3.742-1.03a15.317 15.317 0 019.953 0c3.442 1.435 5.163 4.527 5.163 9.274zm-11.861 3.68c0-2.969-1.771-3.968-5.313-2.999l-1.684.46v8.942l1.684-.46c3.53-1.018 5.294-3.005 5.294-5.961l.019.018zm26.38 6.716l-12.143 3.22v-43.222l12.124-3.331.019 43.333zm35.96-10.963a31.801 31.801 0 01-9.785 4.987c-6.161 1.692-11.237.944-15.229-2.245-3.991-3.19-5.968-8.133-5.93-14.831a29.476 29.476 0 016.473-18.566c3.592-4.884 8.732-8.456 14.611-10.157a19.814 19.814 0 019.879-.313v13.433a9.168 9.168 0 00-4.212-1.94 9.25 9.25 0 00-4.638.357 12.084 12.084 0 00-7.015 5.299 15.412 15.412 0 00-2.563 8.649 8.728 8.728 0 00.557 3.821 8.867 8.867 0 002.155 3.226 7.01 7.01 0 003.273 1.495 7.071 7.071 0 003.593-.317 15.934 15.934 0 008.85-6.275l-.019 13.377zm48.007-33.836a29.596 29.596 0 01-5.762 17.701c-3.866 5.526-9.601 9.523-16.183 11.279-6.723 1.853-12.13 1.068-16.221-2.355-3.841-3.226-5.762-8.065-5.762-14.518a29.598 29.598 0 015.762-17.683c3.881-5.527 9.628-9.523 16.221-11.279 6.723-1.852 12.117-1.067 16.183 2.355 3.842 3.214 5.762 8.047 5.762 14.5zm-12.609 3.477a8.59 8.59 0 00-.566-3.789 8.702 8.702 0 00-2.166-3.184 6.805 6.805 0 00-3.136-1.438 6.874 6.874 0 00-3.449.278 12.035 12.035 0 00-6.605 4.785 14.286 14.286 0 00-2.769 8.537 8.588 8.588 0 00.575 3.815 8.703 8.703 0 002.194 3.196 6.87 6.87 0 003.147 1.435 6.92 6.92 0 003.458-.276 11.922 11.922 0 006.585-4.784 14.286 14.286 0 002.732-8.575zm41.834-22.158l-8.382 2.3v32.293l-12.123 3.33v-32.274l-8.438 2.318v-11.04l28.943-7.967v11.04zm34.894 8.318a17.174 17.174 0 01-1.255 6.789 17.413 17.413 0 01-3.834 5.779 23.544 23.544 0 01-10.851 6.182l-14.967 4.14v-43.314l12.123-3.331v15.512l3.742-1.012a15.2 15.2 0 019.953 0c3.393 1.423 5.089 4.508 5.089 9.255zm-11.861 3.68c0-2.968-1.771-3.968-5.314-2.999l-1.683.46v8.943l1.683-.46c3.53-.982 5.295-2.969 5.295-5.962l.019.018zm26.379 6.717l-12.123 3.33v-43.333l12.123-3.33v43.333z" fill="#F59F0D"/></svg>