<svg width="119" height="78" fill="none" xmlns="http://www.w3.org/2000/svg"><path d="M15.827 38.631a15.211 15.211 0 01-2.69 8.973 12.127 12.127 0 01-6.858 4.912 10.437 10.437 0 01-5.684.141v-5.598a6.26 6.26 0 004.895.519 5.726 5.726 0 003.174-2.1 5.655 5.655 0 001.13-2.875L4.01 44.194v-4.245l5.71-1.564a2.73 2.73 0 00-.506-1.245 2.801 2.801 0 00-1.044-.864 4.137 4.137 0 00-2.923-.123 9.352 9.352 0 00-4.662 3.085v-5.52a15.14 15.14 0 015.71-3.04c2.81-.773 5.102-.416 6.877 1.072 1.775 1.488 2.66 3.782 2.654 6.881zm19.541 5.357l-5.81 1.59V37.38l-5.944 1.635v8.2l-5.81 1.59V28.09l5.81-1.59v7.742l5.944-1.626v-7.76l5.81-1.59v20.722zm14.744-4.048l-11.87 3.26V22.513l11.87-3.216v5.159l-6.06 1.66v2.69l5.603-1.6v4.878l-5.612 1.537v2.804l6.06-1.661.01 5.176zM67.76 21.433a8.421 8.421 0 01-1.793 5.448 9.72 9.72 0 01-5.19 3.173l-2.475.677V37.7l-5.81 1.59V18.594l7.809-2.144c2.492-.685 4.384-.545 5.675.422 1.19.896 1.784 2.417 1.784 4.56zM61.816 22.9c0-1.483-.816-2.001-2.447-1.556l-1.076.29v4.447l1.022-.281c1.667-.452 2.501-1.418 2.501-2.9zm19.356-7.008l-5.737 1.573v15.529l-5.81 1.59V13.906l11.547-3.164v5.15zm20.064 10.025l-5.783 1.581V15.873l-7.002 13.551-5.513 1.512V10.22l5.755-1.582v11.82l7.065-13.753 5.478-1.503v20.714zm17.49-4.799l-5.783 1.59v-7.223l-.332.088-3.46 8.172-6.276 1.758 4.259-8.876c-2.493-.14-3.739-1.796-3.739-4.965a8.435 8.435 0 01.631-3.381 8.579 8.579 0 011.933-2.867 10.907 10.907 0 014.94-2.848l7.809-2.144.018 20.696zm-5.783-9.772v-4.64l-1.192.325c-1.68.462-2.52 1.453-2.52 2.97 0 1.517.84 2.074 2.52 1.67l1.192-.325zM16.641 67.493a7.359 7.359 0 01-1.667 4.79 10.291 10.291 0 01-5.451 3.269L.96 77.898V57.202l8.185-2.24c2.002-.552 3.533-.426 4.59.377.47.385.839.875 1.076 1.428a3.69 3.69 0 01.287 1.753 5.822 5.822 0 01-.677 2.667 5.95 5.95 0 01-1.833 2.079 3.91 3.91 0 011.595.198c.512.176.98.456 1.373.821a4.382 4.382 0 011.084 3.208zM9.837 61.13c0-1.26-.7-1.699-2.098-1.318l-1.05.29v3.78l.646-.177c1.668-.457 2.502-1.315 2.502-2.575zm.896 7.664c0-1.377-.762-1.855-2.286-1.433l-1.73.475v3.954l1.497-.413a4.115 4.115 0 001.793-.94 2.177 2.177 0 00.699-1.643h.027zm23.106-6.782a8.187 8.187 0 01-.602 3.242 8.318 8.318 0 01-1.837 2.76 11.278 11.278 0 01-5.2 2.953l-7.208 1.942V52.257l5.81-1.59v7.408l1.793-.492a7.364 7.364 0 014.77 0c1.649.685 2.474 2.162 2.474 4.429zm-5.684 1.758c0-1.418-.849-1.896-2.546-1.433l-.807.22v4.27l.807-.219c1.691-.486 2.537-1.435 2.537-2.847l.009.009zm12.64 3.207l-5.818 1.538V47.872l5.81-1.59.009 20.695zm17.229-5.239a15.262 15.262 0 01-4.689 2.381c-2.952.809-5.385.451-7.297-1.072-1.913-1.523-2.86-3.884-2.842-7.083a14.048 14.048 0 013.102-8.867 13.258 13.258 0 017.002-4.851 9.523 9.523 0 014.733-.15v6.416a4.405 4.405 0 00-2.018-.927 4.45 4.45 0 00-2.222.17 5.787 5.787 0 00-3.362 2.532 7.345 7.345 0 00-1.229 4.13 4.18 4.18 0 00.267 1.825 4.23 4.23 0 001.033 1.54c.45.37.99.616 1.568.715a3.4 3.4 0 001.723-.152 7.634 7.634 0 004.24-2.996l-.009 6.389zm23.011-16.16a14.107 14.107 0 01-2.761 8.454 13.795 13.795 0 01-7.755 5.388c-3.222.884-5.813.51-7.773-1.125-1.841-1.541-2.761-3.852-2.761-6.934-.016-3.03.95-5.988 2.76-8.445a13.84 13.84 0 017.774-5.387c3.221-.885 5.806-.51 7.755 1.124 1.84 1.535 2.761 3.844 2.761 6.925zm-6.042 1.661a4.083 4.083 0 00-.272-1.81 4.154 4.154 0 00-1.037-1.52 3.266 3.266 0 00-1.503-.687 3.298 3.298 0 00-1.653.133 5.767 5.767 0 00-3.165 2.285 6.806 6.806 0 00-1.327 4.078c-.048.62.046 1.242.276 1.821.23.58.589 1.102 1.051 1.527.434.352.954.588 1.508.685a3.326 3.326 0 001.657-.131 5.712 5.712 0 003.156-2.285 6.805 6.805 0 001.309-4.096zm20.041-10.583l-4.017 1.098v15.423l-5.81 1.591V39.354l-4.043 1.107v-5.273l13.87-3.805v5.273zm16.722 3.974a8.193 8.193 0 01-.601 3.241 8.318 8.318 0 01-1.838 2.76 11.29 11.29 0 01-5.199 2.953l-7.173 1.977V30.875l5.81-1.59v7.408l1.793-.483a7.308 7.308 0 014.769 0c1.626.68 2.439 2.153 2.439 4.42zm-5.684 1.757c0-1.418-.849-1.895-2.546-1.433l-.807.22v4.271l.807-.22c1.691-.468 2.537-1.418 2.537-2.847l.009.009zm12.641 3.207l-5.809 1.591V26.49l5.809-1.59v20.695z" fill="#F08518"/></svg>