<?xml version="1.0" encoding="utf-8"?><svg viewBox="0 0 48 49" xmlns="http://www.w3.org/2000/svg" xmlns:xlink="http://www.w3.org/1999/xlink"><style>:root>svg{display:none}:root>svg:target{display:block}</style><svg fill="none" viewBox="0 0 24 25" id="address" xmlns="http://www.w3.org/2000/svg"><path d="M12 12.938c-1.1 0-2-.9-2-2s.9-2 2-2 2 .9 2 2-.9 2-2 2zm0-10c-4.2 0-8 3.22-8 8.2 0 3.32 2.67 7.25 8 11.8 5.33-4.55 8-8.48 8-11.8 0-4.98-3.8-8.2-8-8.2z" fill="#2B2A29"/></svg><svg fill="none" viewBox="0 0 32 32" id="address-color" xmlns="http://www.w3.org/2000/svg"><path d="M16.003 16.005a2.675 2.675 0 01-2.667-2.666c0-1.467 1.2-2.667 2.667-2.667 1.466 0 2.666 1.2 2.666 2.666 0 1.467-1.2 2.667-2.666 2.667zm0-13.333c-5.6 0-10.667 4.293-10.667 10.933 0 4.427 3.56 9.667 10.667 15.733 7.106-6.066 10.666-11.306 10.666-15.733 0-6.64-5.066-10.933-10.666-10.933z" fill="#F08518"/></svg><svg fill="none" viewBox="0 0 16 16" id="arrow-back" xmlns="http://www.w3.org/2000/svg"><path d="M3.828 6.971H16V9.03H3.828l5.364 5.517L7.778 16 0 8l7.778-8 1.414 1.455L3.828 6.97z" fill="currentColor"/></svg><svg fill="none" viewBox="0 0 20 21" id="arrow-left" xmlns="http://www.w3.org/2000/svg"><g clip-path="url(#dclip0_4681_16216)"><path d="M4.786 9.417H20v2.572H4.786l6.705 6.896-1.768 1.818-9.723-10 9.723-10 1.768 1.818-6.705 6.896z" fill="#2B2A29"/></g><defs><clipPath id="dclip0_4681_16216"><path fill="#fff" transform="translate(0 .703)" d="M0 0h20v20H0z"/></clipPath></defs></svg><svg fill="none" viewBox="0 0 24 25" id="arrow-link" xmlns="http://www.w3.org/2000/svg"><path d="M20.007 7.496L2.824 24.68 0 21.856 17.183 4.673H2.038V.68H24v21.962h-3.993V7.496z" fill="currentColor"/></svg><svg fill="none" viewBox="0 0 20 21" id="arrow-right" xmlns="http://www.w3.org/2000/svg"><g clip-path="url(#fclip0_4681_16218)"><path d="M15.36 11.989H-.29V9.417h15.65L8.462 2.521 10.281.703l10 10-10 10-1.818-1.818 6.896-6.896z" fill="#000"/></g><defs><clipPath id="fclip0_4681_16218"><path fill="#fff" transform="translate(0 .703)" d="M0 0h20v20H0z"/></clipPath></defs></svg><svg fill="none" viewBox="0 0 10 10" id="chevron-down" xmlns="http://www.w3.org/2000/svg"><path d="M5 8.333l5-5.036-.792-.797L5 6.694.792 2.5 0 3.297l5 5.036z" fill="#000"/></svg><svg fill="none" viewBox="0 0 20 20" id="document" xmlns="http://www.w3.org/2000/svg"><path d="M12.67 1.754c-.289-.288-.787-.091-.787.309v2.449c0 1.024.87 1.874 1.93 1.874.667.007 1.593.007 2.386.007.4 0 .61-.47.33-.751-1.01-1.018-2.821-2.85-3.86-3.888z" fill="currentColor"/><path d="M15.967 7.365H13.94a3.022 3.022 0 01-3.017-3.018V2.319a.704.704 0 00-.702-.702H7.245c-2.162 0-3.91 1.404-3.91 3.909v8.954c0 2.506 1.748 3.91 3.91 3.91h5.516c2.16 0 3.908-1.404 3.908-3.91V8.066a.704.704 0 00-.702-.701zm-6.315 8.042H6.845a.53.53 0 01-.527-.527.53.53 0 01.527-.526h2.807a.53.53 0 01.526.526.53.53 0 01-.526.527zm1.403-2.807h-4.21a.53.53 0 01-.527-.527.53.53 0 01.527-.526h4.21a.53.53 0 01.527.526.53.53 0 01-.527.527z" fill="currentColor"/></svg><svg fill="none" viewBox="0 0 32 32" id="email" xmlns="http://www.w3.org/2000/svg"><path d="M29.338 10.041v12.62a4 4 0 01-3.765 3.994l-.235.006H6.672a4 4 0 01-3.993-3.765l-.007-.235v-12.62l12.593 8.396.155.088a1.334 1.334 0 001.17 0l.155-.087 12.593-8.396z" fill="#000"/><path d="M25.338 5.328c1.44 0 2.703.76 3.407 1.903l-12.74 8.493-12.74-8.493a4 4 0 013.139-1.894l.268-.009h18.666z" fill="#000"/></svg><svg fill="none" viewBox="0 0 16 17" id="eye" xmlns="http://www.w3.org/2000/svg"><path d="M8 6.38c-.579 0-1.134.224-1.543.625-.409.4-.639.942-.639 1.508 0 .566.23 1.108.64 1.508.408.4.963.625 1.542.625.579 0 1.134-.224 1.543-.625.409-.4.639-.942.639-1.508a2.11 2.11 0 00-.64-1.508C9.135 6.605 8.58 6.38 8 6.38zm0 5.689c-.964 0-1.89-.375-2.571-1.042a3.516 3.516 0 01-1.065-2.514c0-.943.383-1.847 1.065-2.514A3.679 3.679 0 018 4.957c.964 0 1.89.375 2.571 1.042a3.516 3.516 0 011.065 2.514c0 .943-.383 1.847-1.065 2.514A3.679 3.679 0 018 12.07zm0-8.89c-3.636 0-6.742 2.212-8 5.334 1.258 3.122 4.364 5.333 8 5.333s6.742-2.211 8-5.333C14.742 5.391 11.636 3.18 8 3.18z" fill="#FEFEFE"/></svg><svg fill="none" viewBox="0 0 24 24" id="info-in-circle" xmlns="http://www.w3.org/2000/svg"><path d="M11.998 17a.968.968 0 00.713-.288.964.964 0 00.287-.712v-4a.965.965 0 00-.288-.712.973.973 0 00-.712-.288.962.962 0 00-.712.288.97.97 0 00-.288.712v4c0 .283.096.521.288.713.192.192.43.288.712.287zm0-8a.968.968 0 00.713-.288.964.964 0 00.287-.712.972.972 0 00-.288-.712.965.965 0 00-.712-.288.965.965 0 00-.712.288.973.973 0 00-.288.712c0 .283.095.52.288.713a.96.96 0 00.712.287zm0 13a9.733 9.733 0 01-3.9-.788 10.114 10.114 0 01-3.175-2.137c-.9-.9-1.612-1.958-2.137-3.175a9.76 9.76 0 01-.788-3.9c0-1.383.262-2.683.788-3.9a10.121 10.121 0 012.137-3.175c.899-.9 1.957-1.612 3.175-2.137a9.741 9.741 0 013.9-.788c1.382 0 2.682.263 3.9.788a10.083 10.083 0 013.175 2.137c.899.9 1.611 1.958 2.138 3.175a9.679 9.679 0 01.787 3.9 9.804 9.804 0 01-.788 3.9 10.03 10.03 0 01-2.137 3.175c-.901.9-1.96 1.612-3.175 2.138a9.689 9.689 0 01-3.9.787zm0-2c2.233 0 4.125-.775 5.675-2.325 1.55-1.55 2.325-3.442 2.325-5.675 0-2.233-.775-4.125-2.325-5.675C16.123 4.775 14.231 4 11.998 4c-2.233 0-4.125.775-5.675 2.325C4.773 7.875 3.998 9.767 3.998 12c0 2.233.775 4.125 2.325 5.675C7.873 19.225 9.765 20 11.998 20z" fill="#FEFEFE"/></svg><svg fill="none" viewBox="0 0 48 49" id="loader" xmlns="http://www.w3.org/2000/svg"><g clip-path="url(#lclip0_4360_197855)" fill-rule="evenodd" clip-rule="evenodd" fill="#F08518"><path d="M24 .688a2.4 2.4 0 012.4 2.4v7.2a2.4 2.4 0 11-4.8 0v-7.2a2.4 2.4 0 012.4-2.4zM36 24.688a2.4 2.4 0 012.4-2.4h7.2a2.4 2.4 0 110 4.8h-7.2a2.4 2.4 0 01-2.4-2.4zM24 36.688a2.4 2.4 0 012.4 2.4v7.2a2.4 2.4 0 11-4.8 0v-7.2a2.4 2.4 0 012.4-2.4zM0 24.688a2.4 2.4 0 012.4-2.4h7.2a2.4 2.4 0 110 4.8H2.4a2.4 2.4 0 01-2.4-2.4zM7.029 7.717a2.4 2.4 0 013.394 0l5.091 5.091a2.4 2.4 0 01-3.394 3.394l-5.091-5.09a2.4 2.4 0 010-3.395zM40.97 7.717a2.4 2.4 0 010 3.394l-5.09 5.091a2.4 2.4 0 11-3.395-3.394l5.091-5.091a2.4 2.4 0 013.394 0zM32.486 33.173a2.4 2.4 0 013.394 0l5.09 5.09a2.4 2.4 0 01-3.393 3.395l-5.091-5.091a2.4 2.4 0 010-3.394zM15.515 33.173a2.4 2.4 0 010 3.394l-5.091 5.09a2.4 2.4 0 11-3.394-3.393l5.091-5.091a2.4 2.4 0 013.394 0z"/></g><defs><clipPath id="lclip0_4360_197855"><path fill="#fff" transform="translate(0 .688)" d="M0 0h48v48H0z"/></clipPath></defs></svg><svg fill="none" viewBox="0 0 32 32" id="metro" xmlns="http://www.w3.org/2000/svg"><path d="M9.542 8.666c-.475-1.608-1.763-1.432-2.644-.683-2.17 2.005-4.996 6.212-3.188 12.271 1.515 5.133 7.817 8.415 7.817 8.415H4.18S.387 24.418.048 19.417c-.43-6.322 2.102-10.31 5.041-12.909 2.758-2.445 5.38-3.172 5.38-3.172l5.364 17.575 5.364-17.575s2.623.727 5.38 3.172c2.94 2.6 5.471 6.587 5.042 12.91-.34 5-4.133 9.251-4.133 9.251H20.14s6.301-3.282 7.816-8.415c1.809-6.058-1.017-10.265-3.187-12.27-.882-.75-2.17-.926-2.644.682l-6.291 19.84s-4.663-14.712-6.291-19.84h-.001z" fill="#204982"/></svg><svg fill="none" viewBox="0 0 36 36" id="play-arrow" xmlns="http://www.w3.org/2000/svg"><g clip-path="url(#nclip0_4681_57601)"><path d="M33.065 18.99L12.35 35.8a1.19 1.19 0 01-1.849-.99V1.19A1.19 1.19 0 0112.35.2l20.715 16.81a1.19 1.19 0 010 1.98z" fill="#FEFEFE"/></g><defs><clipPath id="nclip0_4681_57601"><path fill="#fff" d="M0 0h36v36H0z"/></clipPath></defs></svg><svg fill="none" viewBox="0 0 20 20" id="plus" xmlns="http://www.w3.org/2000/svg"><path fill-rule="evenodd" clip-rule="evenodd" d="M8.75 0v8.75H0v2.5h8.75V20h2.5v-8.75H20v-2.5h-8.75V0h-2.5z" fill="currentColor"/></svg><svg fill="none" viewBox="0 0 20 21" id="star" xmlns="http://www.w3.org/2000/svg"><g clip-path="url(#pclip0_4681_22528)"><path d="M10 16.508l6.18 3.599-1.64-6.784L20 8.76l-7.19-.588L10 1.773 7.19 8.171 0 8.759l5.46 4.564-1.64 6.784 6.18-3.6z" fill="#EAEAEA"/></g><defs><clipPath id="pclip0_4681_22528"><path fill="#fff" transform="translate(0 .938)" d="M0 0h20v20H0z"/></clipPath></defs></svg><svg fill="none" viewBox="0 0 32 32" id="station" xmlns="http://www.w3.org/2000/svg"><path d="M0 8a8 8 0 018-8h16a8 8 0 018 8v16a8 8 0 01-8 8H8a8 8 0 01-8-8V8z" fill="#8647B2"/><path d="M15.248 22.24c-.73 0-1.421-.104-2.072-.312-.65-.208-1.19-.496-1.616-.864l.76-2.072c.352.352.773.61 1.264.776.49.16.997.24 1.52.24.41 0 .765-.059 1.064-.176.304-.117.536-.296.696-.536.165-.24.248-.541.248-.904a1.27 1.27 0 00-.256-.792 1.534 1.534 0 00-.704-.512c-.299-.123-.653-.184-1.064-.184-.267 0-.547.032-.84.096a4.57 4.57 0 00-.888.296l-1.088-1.2.592-5.288 6.448.016v2.264h-4.624l-.256 1.96a5.92 5.92 0 01.584-.112c.197-.027.4-.04.608-.04.773 0 1.456.144 2.048.432a3.28 3.28 0 011.4 1.248c.336.539.504 1.184.504 1.936 0 .757-.181 1.416-.544 1.976-.357.555-.861.987-1.512 1.296-.645.304-1.403.456-2.272.456z" fill="#FEFEFE"/></svg><svg fill="none" viewBox="0 0 24 25" id="tel" xmlns="http://www.w3.org/2000/svg"><path d="M19.227 16.195l-2.54-.29a1.99 1.99 0 00-1.64.57l-1.84 1.84a15.05 15.05 0 01-6.59-6.59l1.85-1.85c.43-.43.64-1.03.57-1.64l-.29-2.52a2 2 0 00-1.99-1.77h-1.73c-1.13 0-2.07.94-2 2.07.53 8.54 7.36 15.36 15.89 15.89 1.13.07 2.07-.87 2.07-2v-1.73c.01-1.01-.75-1.86-1.76-1.98z" fill="#2B2A29"/></svg><svg fill="none" viewBox="0 0 20 20" id="tg" xmlns="http://www.w3.org/2000/svg"><g clip-path="url(#sclip0_4681_45786)" fill="#2B2A29"><path d="M19.691 1.987c-.244-.299-.61-.464-1.03-.464-.229 0-.47.049-.72.144L1.013 8.129C.114 8.472-.008 8.986 0 9.263c.008.276.158.783 1.075 1.074l.016.005 2.374.68 11.563-5.908a.586.586 0 01.693.923L9.294 12.87l-.184.743 2.296 1.849 3.181 2.562.009.006c.35.272.732.415 1.106.416.73 0 1.31-.54 1.48-1.376l2.773-13.697c.112-.55.018-1.042-.263-1.385z"/><path d="M8.194 12.44a.584.584 0 01.142-.262l4.219-4.483-7.828 4 1.777 5.083c.101.29.252.536.439.73l1.251-5.069zM8.031 17.977c.423-.003.838-.181 1.202-.516l1.3-1.198L8.8 14.867l-.768 3.11z"/></g><defs><clipPath id="sclip0_4681_45786"><path fill="#fff" d="M0 0h20v20H0z"/></clipPath></defs></svg><svg fill="none" viewBox="0 0 24 24" id="tickets" xmlns="http://www.w3.org/2000/svg"><g clip-path="url(#tclip0_4681_45796)" fill="#0D0D0D"><path d="M21.15 12.003c-.106.539-.584.93-1.156.955a.392.392 0 00-.368.317.391.391 0 00.217.433c.518.244.808.79.699 1.328l-.103.511c-.134.675-.879 1.096-1.532.936-.182-.044-.37-.078-.555-.115-.273-.053-.546-.11-.818-.163l-1.082-.217-1.288-.258c-.48-.098-.96-.193-1.44-.29-.511-.102-1.025-.204-1.537-.31-.526-.104-1.052-.211-1.576-.316L9.05 14.5l-1.49-.3-1.365-.272c-.394-.078-.789-.159-1.181-.237l-.945-.19-.65-.131c-.1-.02-.2-.042-.3-.061l-.015-.003a1.248 1.248 0 01-1.457 1.479c-.162-.032-.34.03-.41.18l-.22.475c-.07.151 0 .327.13.431.023.02 17.58 8.114 17.61 8.12.162.033.34-.028.411-.18l.22-.474c.07-.151 0-.327-.13-.431a1.244 1.244 0 01-.353-1.496c.246-.53.818-.809 1.369-.701.163.031.34-.03.411-.18l.22-.476c.07-.15 0-.326-.13-.43a1.244 1.244 0 01-.353-1.496c.246-.531.819-.809 1.37-.702.162.032.34-.029.41-.18l.22-.475c.07-.151 0-.326-.129-.431a1.244 1.244 0 01-.353-1.496 1.248 1.248 0 011.369-.701c.163.032.34-.03.411-.18l.241-.527a.3.3 0 00-.146-.399l-2.623-1.21-.041.177z"/><path d="M.23 11.835c.03.015 18.982 3.817 19.014 3.817.165-.007.326-.11.358-.27l.102-.512c.032-.163-.076-.319-.227-.39a1.248 1.248 0 01.477-2.375c.166-.007.327-.11.359-.27l.076-.375.026-.139c.032-.163-.075-.319-.226-.39a1.248 1.248 0 01.477-2.375c.166-.007.326-.109.358-.27l.102-.511c.032-.163-.075-.32-.226-.39a1.248 1.248 0 01.477-2.375c.166-.007.327-.11.358-.27l.115-.568a.3.3 0 00-.236-.353S2.569 0 2.549 0c-.141 0-.265.1-.294.241L2.14.81c-.032.163.076.319.227.39a1.248 1.248 0 01-.477 2.375c-.166.007-.327.109-.359.27l-.102.511c-.032.163.075.32.226.39a1.248 1.248 0 01-.477 2.375c-.166.007-.326.11-.358.27l-.102.511c-.032.164.075.32.226.39a1.248 1.248 0 01-.477 2.375c-.166.007-.327.11-.358.27l-.103.512c-.034.163.073.317.224.387zm16.235-6.243a.61.61 0 011.193.24l-1.298 6.464a.61.61 0 01-1.194-.24l1.299-6.464zM5.485 3.388a.61.61 0 011.193.239L5.382 10.09a.609.609 0 01-.765.466.607.607 0 01-.426-.704l.09-.456 1.203-6.009z"/></g><defs><clipPath id="tclip0_4681_45796"><path fill="#fff" d="M0 0h24v24H0z"/></clipPath></defs></svg><svg fill="none" viewBox="0 0 20 20" id="vk" xmlns="http://www.w3.org/2000/svg"><path fill-rule="evenodd" clip-rule="evenodd" d="M17.213 11.642c.663.648 1.363 1.257 1.959 1.97.262.317.511.644.702 1.012.27.522.025 1.098-.444 1.129l-2.913-.002c-.752.063-1.351-.24-1.855-.753-.404-.411-.777-.849-1.165-1.273a2.756 2.756 0 00-.525-.466c-.397-.259-.743-.18-.97.235-.231.422-.284.89-.307 1.36-.03.686-.238.866-.927.898-1.473.069-2.871-.154-4.17-.897-1.144-.655-2.032-1.58-2.805-2.627C2.29 10.19 1.136 7.95.101 5.649c-.233-.52-.063-.798.51-.808.95-.018 1.9-.017 2.852 0 .387.005.642.226.792.591.514 1.265 1.143 2.468 1.933 3.583.21.297.425.594.73.803.338.231.595.154.754-.222.101-.239.145-.496.168-.751.075-.88.085-1.758-.047-2.634-.08-.547-.389-.901-.935-1.005-.278-.052-.237-.156-.102-.315.234-.274.455-.445.894-.445h3.293c.518.103.633.336.704.857l.003 3.658c-.006.202.1.801.464.935.292.095.483-.138.658-.323.788-.836 1.351-1.825 1.854-2.85.223-.45.415-.917.6-1.384.138-.347.355-.518.745-.51l3.17.003c.093 0 .188.001.28.017.533.09.68.32.515.842-.26.818-.766 1.5-1.26 2.185-.529.731-1.094 1.437-1.618 2.173-.482.672-.443 1.01.155 1.594z" fill="#000"/></svg></svg>