<svg width="1728" height="752" fill="none" xmlns="http://www.w3.org/2000/svg"><path d="M202.92 280.324L58.76 356.602 0 411.692v305.113L119 751.5l378.5-68 629.5 68 310.5-68 290.5 33.305V.5h-80l-107.5 21.102-165 48.898-316.1-48.675-347.68 148.319-165.36-67.803-216.24 114.417-127.2 63.566z" fill="#FBF4E7"/><path d="M0 647.549l180 44.114 354-68.736L948 705l540-102.591 240 45.14v-527.32l-164-55.4-150 135.422L1254 32l-202 129.266-292-41.037-285 75.918L244.5 101 0 225v422.549z" fill="#FBEEDA"/><path fill-rule="evenodd" clip-rule="evenodd" d="M1410.61 117.051l-10.6 10.601 10.6 10.601-2.36 2.356-10.6-10.601-10.6 10.601-2.35-2.356 10.6-10.601-10.6-10.601 2.35-2.356 10.6 10.601 10.6-10.601 2.36 2.356zM135.652 82.992c3.669 0 6.66 2.99 6.66 6.66s-2.991 6.66-6.66 6.66c-3.67 0-6.66-2.99-6.66-6.66s2.99-6.66 6.66-6.66zm29 572c3.669 0 6.66 2.99 6.66 6.66 0 3.669-2.991 6.66-6.66 6.66-3.67 0-6.66-2.991-6.66-6.66 0-3.67 2.99-6.66 6.66-6.66zM1102.3 23.957l-10.6 10.602 10.6 10.6-2.35 2.356-10.6-10.6-10.6 10.6-2.36-2.355 10.6-10.601-10.6-10.602 2.36-2.355 10.6 10.6 10.6-10.6 2.35 2.355zM885.652 172.992c3.669 0 6.66 2.99 6.66 6.66 0 3.669-2.991 6.66-6.66 6.66-3.67 0-6.66-2.991-6.66-6.66 0-3.67 2.99-6.66 6.66-6.66z" fill="#F59F0D"/></svg>