<svg width="1728" height="752" viewBox="0 0 1728 752" fill="none" xmlns="http://www.w3.org/2000/svg">
<path d="M202.92 280.324L58.7601 356.602L0 411.692V716.805L119 751.5L497.5 683.5L1127 751.5L1437.5 683.5L1728 716.805V0.5H1648L1540.5 21.6016L1375.5 70.5L1059.4 21.825L711.72 170.144L546.36 102.341L330.12 216.758L202.92 280.324Z" fill="#FBF4E7"/>
<path d="M0 647.549L180 691.663L534 622.927L948 705L1488 602.409L1728 647.549V120.229L1564 64.8298L1414 200.251L1254 32L1052 161.266L760 120.229L475 196.147L244.5 101L0 225V647.549Z" fill="#FBEEDA"/>
<path fill-rule="evenodd" clip-rule="evenodd" d="M1410.61 117.051L1400.01 127.652L1410.61 138.253L1408.25 140.609L1397.65 130.008L1387.05 140.609L1384.7 138.253L1395.3 127.652L1384.7 117.051L1387.05 114.695L1397.65 125.296L1408.25 114.695L1410.61 117.051Z" fill="#F59F0D"/>
<path fill-rule="evenodd" clip-rule="evenodd" d="M135.652 82.9922C139.321 82.9922 142.312 85.9822 142.312 89.6519C142.312 93.3215 139.321 96.3115 135.652 96.3115C131.982 96.3115 128.992 93.3215 128.992 89.6519C128.992 85.9822 131.982 82.9922 135.652 82.9922Z" fill="#F59F0D"/>
<path fill-rule="evenodd" clip-rule="evenodd" d="M164.652 654.992C168.321 654.992 171.312 657.982 171.312 661.652C171.312 665.321 168.321 668.312 164.652 668.312C160.982 668.312 157.992 665.321 157.992 661.652C157.992 657.982 160.982 654.992 164.652 654.992Z" fill="#F59F0D"/>
<path fill-rule="evenodd" clip-rule="evenodd" d="M1102.3 23.9574L1091.7 34.5585L1102.3 45.1596L1099.95 47.5154L1089.35 36.9143L1078.75 47.5154L1076.39 45.1596L1086.99 34.5585L1076.39 23.9574L1078.75 21.6016L1089.35 32.2027L1099.95 21.6016L1102.3 23.9574Z" fill="#F59F0D"/>
<path fill-rule="evenodd" clip-rule="evenodd" d="M885.652 172.992C889.321 172.992 892.312 175.982 892.312 179.652C892.312 183.321 889.321 186.312 885.652 186.312C881.982 186.312 878.992 183.321 878.992 179.652C878.992 175.982 881.982 172.992 885.652 172.992Z" fill="#F59F0D"/>
</svg>
