<svg width="26" height="27" viewBox="0 0 26 27" fill="none" xmlns="http://www.w3.org/2000/svg">
<g clip-path="url(#clip0_4681_22516)">
<path d="M13.0048 26.9158C20.1698 26.9158 25.9783 21.1073 25.9783 13.9423C25.9783 6.77719 20.1698 0.96875 13.0048 0.96875C5.83969 0.96875 0.03125 6.77719 0.03125 13.9423C0.03125 21.1073 5.83969 26.9158 13.0048 26.9158Z" fill="#FC3F1D"/>
<path d="M17.6957 22.08H14.8477V7.99425H13.579C11.2535 7.99425 10.0353 9.15703 10.0353 10.8928C10.0353 12.862 10.8755 13.7744 12.6137 14.9372L14.0461 15.9026L9.92941 22.0776H6.86719L10.5722 16.5646C8.44163 15.0431 7.24274 13.5578 7.24274 11.0517C7.24274 7.91962 9.42626 5.78906 13.5598 5.78906H17.6764V22.0752H17.6957V22.08Z" fill="white"/>
</g>
<defs>
<clipPath id="clip0_4681_22516">
<rect width="26" height="26" fill="white" transform="translate(0 0.9375)"/>
</clipPath>
</defs>
</svg>
