<svg width="26" height="27" fill="none" xmlns="http://www.w3.org/2000/svg"><g clip-path="url(#clip0_4681_22516)"><path d="M13.005 26.916c7.165 0 12.973-5.809 12.973-12.974S20.17.97 13.005.97C5.84.969.03 6.777.03 13.942c0 7.165 5.809 12.974 12.974 12.974z" fill="#FC3F1D"/><path d="M17.696 22.08h-2.848V7.994h-1.269c-2.325 0-3.544 1.163-3.544 2.899 0 1.969.84 2.881 2.579 4.044l1.432.966-4.117 6.175H6.867l3.705-5.513c-2.13-1.522-3.33-3.007-3.33-5.513 0-3.132 2.184-5.263 6.318-5.263h4.116v16.286h.02v.005z" fill="#fff"/></g><defs><clipPath id="clip0_4681_22516"><path fill="#fff" transform="translate(0 .938)" d="M0 0h26v26H0z"/></clipPath></defs></svg>