<svg width="1728" height="874" viewBox="0 0 1728 874" fill="none" xmlns="http://www.w3.org/2000/svg">
<rect width="1728" height="874" fill="#FEFEFE"/>
<path d="M1728 199.461V789.83L1334 765.368L928.216 835.084L666 789.83L486 873L0 736.014V346.134L58 454.269L210.369 145.157L514 387.434L872 93L1040 257L1130 145.157L1225.95 0L1497.73 269.742L1728 199.461Z" fill="#F4F4F4" fill-opacity="0.5"/>
<path d="M1130 145.157L1040 257L872 93L514 387.435L210.369 145.157L58 454.27L0 346.134V737.015L486 874L666 790.83L928.216 836.084L1334 766.368L1728 790.83V199.461L1497.73 269.742L1225.95 0L1130 145.157ZM1497.45 270.873L1727 200.811V789.766L1334.06 765.37L1333.95 765.363L928.218 835.069L665.863 789.792L665.58 789.922L485.916 872.937L1 736.257V350.112L58.0371 456.455L210.717 146.713L514.01 388.721L871.943 94.3408L1040.09 258.484L1130.78 145.784L1130.81 145.748L1130.83 145.709L1226.11 1.56934L1497.45 270.873Z" fill="#EAEAEA"/>
<path d="M0 323.54V725L394 770.434L816 703L1058 745.189H1728V449.682L1670 542.681L1517.63 276.838L1214 485.202L918.995 244.724L722 383.984L598 276.838L502.054 152L230.267 383.984L0 323.54Z" fill="#F4F4F4"/>
<path d="M598 276.838L722 383.984L918.995 244.724L1214 485.201L1517.63 276.838L1670 542.681L1728 449.683V805.189H1058L816 763L394 830.434L0 785V323.54L230.267 383.984L502.054 152L598 276.838ZM230.519 385.084L1 324.837V784.108L393.977 829.425L816.007 761.986L816.172 762.015L1058.09 804.189H1727V453.175L1669.96 544.629L1517.3 278.276L1213.95 486.449L918.951 245.979L721.938 385.252L597.346 277.595L597.27 277.528L597.207 277.447L501.902 153.443L230.519 385.084Z" fill="#EAEAEA"/>
<path d="M1497.51 578.169L1497.66 578.219L1497.81 578.202L1727.33 553.389V825.86L1334.01 817.212L1333.99 817.211L1333.96 817.213L928.216 841.902L666.041 825.877L665.966 825.872L665.893 825.884L485.977 855.327L0.666992 806.877V605.836L57.6328 643.453L58.0156 643.706L58.3887 643.438L210.496 534.142L513.818 619.866L514.017 619.923L514.212 619.856L809.02 520.885L1005.81 578.18L1006.02 578.24L1006.22 578.168L1130.22 534.041L1130.27 534.024L1130.31 534.001L1226 482.726L1497.51 578.169Z" fill="#EAEAEA" stroke="#EAEAEA" stroke-width="1.33341"/>
</svg>
