<svg width="1728" height="874" fill="none" xmlns="http://www.w3.org/2000/svg"><path fill="#FEFEFE" d="M0 0h1728v874H0z"/><path d="M1728 199.461V789.83l-394-24.462-405.784 69.716L666 789.83 486 873 0 736.014v-389.88l58 108.135 152.369-309.112L514 387.434 872 93l168 164 90-111.843L1225.95 0l271.78 269.742L1728 199.461z" fill="#F4F4F4" fill-opacity=".5"/><path d="M1130 145.157L1040 257 872 93 514 387.435 210.369 145.157 58 454.27 0 346.134v390.881L486 874l180-83.17 262.216 45.254L1334 766.368l394 24.462V199.461l-230.27 70.281L1225.95 0 1130 145.157zm367.45 125.716L1727 200.811v588.955l-392.94-24.396-.11-.007-405.732 69.706-262.355-45.277-.283.13-179.664 83.015L1 736.257V350.112l57.037 106.343 152.68-309.742L514.01 388.721l357.933-294.38 168.147 164.143 90.69-112.7.03-.036.02-.039 95.28-144.14 271.34 269.304z" fill="#EAEAEA"/><path d="M0 323.54V725l394 45.434L816 703l242 42.189h670V449.682l-58 92.999-152.37-265.843L1214 485.202 918.995 244.724 722 383.984 598 276.838 502.054 152 230.267 383.984 0 323.54z" fill="#F4F4F4"/><path d="M598 276.838l124 107.146 196.995-139.26L1214 485.201l303.63-208.363L1670 542.681l58-92.998v355.506h-670L816 763l-422 67.434L0 785V323.54l230.267 60.444L502.054 152 598 276.838zM230.519 385.084L1 324.837v459.271l392.977 45.317 422.03-67.439.165.029 241.918 42.174H1727V453.175l-57.04 91.454-152.66-266.353-303.35 208.173-294.999-240.47-197.013 139.273-124.592-107.657-.076-.067-.063-.081-95.305-124.004-271.383 231.641z" fill="#EAEAEA"/><path d="M1497.51 578.169l.15.05.15-.017 229.52-24.813V825.86l-393.32-8.648-.02-.001-.03.002-405.744 24.689-262.175-16.025-.075-.005-.073.012-179.916 29.443-485.31-48.45V605.836l56.966 37.617.383.253.373-.268 152.107-109.296 303.322 85.724.199.057.195-.067 294.808-98.971 196.79 57.295.21.06.2-.072 124-44.127.05-.017.04-.023 95.69-51.275 271.51 95.443z" fill="#EAEAEA" stroke="#EAEAEA" stroke-width="1.333"/></svg>