<svg width="24" height="24" fill="none" xmlns="http://www.w3.org/2000/svg"><path d="M12 7a.968.968 0 00-.713.288A.964.964 0 0011 8v4c0 .283.096.52.288.712.192.191.43.287.712.288.283 0 .52-.095.712-.288A.97.97 0 0013 12V8a.968.968 0 00-.288-.713A.964.964 0 0012 7zm0 8a.968.968 0 00-.713.288A.964.964 0 0011 16c0 .283.097.52.288.712A.965.965 0 0012 17c.283 0 .52-.096.712-.288A.973.973 0 0013 16a.965.965 0 00-.288-.713A.96.96 0 0012 15zm0-13a9.74 9.74 0 013.9.788 10.114 10.114 0 013.175 2.137c.9.9 1.612 1.958 2.137 3.175A9.76 9.76 0 0122 12a9.713 9.713 0 01-.788 3.9 10.12 10.12 0 01-2.137 3.175 10.07 10.07 0 01-3.175 2.137A9.742 9.742 0 0112 22a9.742 9.742 0 01-3.9-.788 10.084 10.084 0 01-3.175-2.137A10.135 10.135 0 012.787 15.9 9.68 9.68 0 012 12a9.805 9.805 0 01.788-3.9 10.032 10.032 0 012.137-3.175c.901-.9 1.96-1.612 3.175-2.138A9.688 9.688 0 0112 2zm0 2c-2.233 0-4.125.775-5.675 2.325C4.775 7.875 4 9.767 4 12c0 2.233.775 4.125 2.325 5.675C7.875 19.225 9.767 20 12 20c2.233 0 4.125-.775 5.675-2.325C19.225 16.125 20 14.233 20 12c0-2.233-.775-4.125-2.325-5.675C16.125 4.775 14.233 4 12 4z" fill="#2B2A29"/></svg>