<svg width="20" height="20" viewBox="0 0 20 20" fill="none" xmlns="http://www.w3.org/2000/svg">
<path d="M12.6691 1.75393C12.3813 1.46621 11.8831 1.6627 11.8831 2.0627V4.51182C11.8831 5.53638 12.7533 6.38551 13.8129 6.38551C14.4796 6.39253 15.4059 6.39253 16.1989 6.39253C16.5989 6.39253 16.8094 5.92235 16.5287 5.64165C15.5182 4.6241 13.7077 2.79253 12.6691 1.75393Z" fill="currentColor"/>
<path d="M15.9675 7.36456H13.9394C12.2763 7.36456 10.9219 6.01017 10.9219 4.34701V2.31894C10.9219 1.93298 10.6061 1.61719 10.2201 1.61719H7.24471C5.08331 1.61719 3.33594 3.0207 3.33594 5.52596V14.4803C3.33594 16.9856 5.08331 18.3891 7.24471 18.3891H12.7605C14.9219 18.3891 16.6693 16.9856 16.6693 14.4803V8.06631C16.6693 7.68034 16.3535 7.36456 15.9675 7.36456ZM9.65173 15.4067H6.84471C6.55699 15.4067 6.31839 15.1681 6.31839 14.8803C6.31839 14.5926 6.55699 14.354 6.84471 14.354H9.65173C9.93945 14.354 10.178 14.5926 10.178 14.8803C10.178 15.1681 9.93945 15.4067 9.65173 15.4067ZM11.0552 12.5996H6.84471C6.55699 12.5996 6.31839 12.361 6.31839 12.0733C6.31839 11.7856 6.55699 11.547 6.84471 11.547H11.0552C11.343 11.547 11.5816 11.7856 11.5816 12.0733C11.5816 12.361 11.343 12.5996 11.0552 12.5996Z" fill="currentColor"/>
</svg>
