<svg width="32" height="32" viewBox="0 0 32 32" fill="none" xmlns="http://www.w3.org/2000/svg">
<path d="M29.3385 10.0415V22.6615C29.3386 23.6817 28.9488 24.6635 28.2488 25.4058C27.5489 26.1481 26.5917 26.5949 25.5732 26.6548L25.3385 26.6615H6.67187C5.65159 26.6615 4.66985 26.2717 3.92753 25.5717C3.1852 24.8718 2.7384 23.9146 2.67854 22.8961L2.67188 22.6615V10.0415L15.2652 18.4375L15.4199 18.5255C15.6021 18.6145 15.8023 18.6608 16.0052 18.6608C16.2081 18.6608 16.4083 18.6145 16.5905 18.5255L16.7452 18.4375L29.3385 10.0415Z" fill="black"/>
<path d="M25.3385 5.32812C26.7785 5.32812 28.0412 6.08813 28.7452 7.23079L16.0052 15.7241L3.26521 7.23079C3.5996 6.68789 4.05893 6.23279 4.6049 5.90344C5.15088 5.5741 5.76768 5.38004 6.40387 5.33746L6.67187 5.32812H25.3385Z" fill="black"/>
</svg>
