<svg width="16" height="17" viewBox="0 0 16 17" fill="none" xmlns="http://www.w3.org/2000/svg">
<path d="M8 6.37969C7.42135 6.37969 6.86639 6.60445 6.45722 7.00453C6.04805 7.4046 5.81818 7.94723 5.81818 8.51302C5.81818 9.07882 6.04805 9.62144 6.45722 10.0215C6.86639 10.4216 7.42135 10.6464 8 10.6464C8.57865 10.6464 9.13361 10.4216 9.54278 10.0215C9.95195 9.62144 10.1818 9.07882 10.1818 8.51302C10.1818 7.94723 9.95195 7.4046 9.54278 7.00453C9.13361 6.60445 8.57865 6.37969 8 6.37969ZM8 12.0686C7.03558 12.0686 6.11065 11.694 5.4287 11.0272C4.74675 10.3604 4.36364 9.45601 4.36364 8.51302C4.36364 7.57003 4.74675 6.66566 5.4287 5.99886C6.11065 5.33207 7.03558 4.95747 8 4.95747C8.96442 4.95747 9.88935 5.33207 10.5713 5.99886C11.2532 6.66566 11.6364 7.57003 11.6364 8.51302C11.6364 9.45601 11.2532 10.3604 10.5713 11.0272C9.88935 11.694 8.96442 12.0686 8 12.0686ZM8 3.17969C4.36364 3.17969 1.25818 5.39124 0 8.51302C1.25818 11.6348 4.36364 13.8464 8 13.8464C11.6364 13.8464 14.7418 11.6348 16 8.51302C14.7418 5.39124 11.6364 3.17969 8 3.17969Z" fill="#FEFEFE"/>
</svg>
