<svg width="24" height="24" viewBox="0 0 24 24" fill="none" xmlns="http://www.w3.org/2000/svg">
<path d="M11.998 17C12.2814 17 12.519 16.904 12.711 16.712C12.903 16.52 12.9987 16.2827 12.998 16V12C12.998 11.7167 12.902 11.4793 12.71 11.288C12.518 11.0967 12.2807 11.0007 11.998 11C11.7154 10.9993 11.478 11.0953 11.286 11.288C11.094 11.4807 10.998 11.718 10.998 12V16C10.998 16.2833 11.094 16.521 11.286 16.713C11.478 16.905 11.7154 17.0007 11.998 17ZM11.998 9C12.2814 9 12.519 8.904 12.711 8.712C12.903 8.52 12.9987 8.28267 12.998 8C12.9974 7.71733 12.9014 7.48 12.71 7.288C12.5187 7.096 12.2814 7 11.998 7C11.7147 7 11.4774 7.096 11.286 7.288C11.0947 7.48 10.9987 7.71733 10.998 8C10.9974 8.28267 11.0934 8.52033 11.286 8.713C11.4787 8.90567 11.716 9.00133 11.998 9ZM11.998 22C10.6147 22 9.31471 21.7373 8.09805 21.212C6.88138 20.6867 5.82305 19.9743 4.92305 19.075C4.02305 18.1757 3.31071 17.1173 2.78605 15.9C2.26138 14.6827 1.99871 13.3827 1.99805 12C1.99738 10.6173 2.26005 9.31733 2.78605 8.1C3.31205 6.88267 4.02438 5.82433 4.92305 4.925C5.82171 4.02567 6.88005 3.31333 8.09805 2.788C9.31605 2.26267 10.616 2 11.998 2C13.38 2 14.68 2.26267 15.898 2.788C17.116 3.31333 18.1744 4.02567 19.073 4.925C19.9717 5.82433 20.6844 6.88267 21.211 8.1C21.7377 9.31733 22 10.6173 21.998 12C21.996 13.3827 21.7334 14.6827 21.21 15.9C20.6867 17.1173 19.9744 18.1757 19.073 19.075C18.1717 19.9743 17.1134 20.687 15.898 21.213C14.6827 21.739 13.3827 22.0013 11.998 22ZM11.998 20C14.2314 20 16.123 19.225 17.673 17.675C19.223 16.125 19.998 14.2333 19.998 12C19.998 9.76667 19.223 7.875 17.673 6.325C16.123 4.775 14.2314 4 11.998 4C9.76471 4 7.87305 4.775 6.32305 6.325C4.77305 7.875 3.99805 9.76667 3.99805 12C3.99805 14.2333 4.77305 16.125 6.32305 17.675C7.87305 19.225 9.76471 20 11.998 20Z" fill="#FEFEFE"/>
</svg>
