<svg width="48" height="49" viewBox="0 0 48 49" fill="none" xmlns="http://www.w3.org/2000/svg">
<g clip-path="url(#clip0_4360_197855)">
<path fill-rule="evenodd" clip-rule="evenodd" d="M24 0.6875C25.3255 0.6875 26.4 1.76202 26.4 3.0875V10.2875C26.4 11.613 25.3255 12.6875 24 12.6875C22.6745 12.6875 21.6 11.613 21.6 10.2875V3.0875C21.6 1.76202 22.6745 0.6875 24 0.6875Z" fill="#F08518"/>
<path fill-rule="evenodd" clip-rule="evenodd" d="M36 24.6875C36 23.362 37.0745 22.2875 38.4 22.2875H45.6C46.9255 22.2875 48 23.362 48 24.6875C48 26.013 46.9255 27.0875 45.6 27.0875H38.4C37.0745 27.0875 36 26.013 36 24.6875Z" fill="#F08518"/>
<path fill-rule="evenodd" clip-rule="evenodd" d="M24 36.6875C25.3255 36.6875 26.4 37.762 26.4 39.0875V46.2875C26.4 47.613 25.3255 48.6875 24 48.6875C22.6745 48.6875 21.6 47.613 21.6 46.2875V39.0875C21.6 37.762 22.6745 36.6875 24 36.6875Z" fill="#F08518"/>
<path fill-rule="evenodd" clip-rule="evenodd" d="M0 24.6875C0 23.362 1.07452 22.2875 2.4 22.2875H9.6C10.9255 22.2875 12 23.362 12 24.6875C12 26.013 10.9255 27.0875 9.6 27.0875H2.4C1.07452 27.0875 0 26.013 0 24.6875Z" fill="#F08518"/>
<path fill-rule="evenodd" clip-rule="evenodd" d="M7.02901 7.71696C7.96626 6.7797 9.48586 6.77971 10.4231 7.71696L15.5143 12.8081C16.4515 13.7454 16.4515 15.265 15.5143 16.2022C14.577 17.1395 13.0574 17.1395 12.1202 16.2022L7.02901 11.1111C6.09175 10.1738 6.09175 8.65422 7.02901 7.71696Z" fill="#F08518"/>
<path fill-rule="evenodd" clip-rule="evenodd" d="M40.9704 7.71695C41.9077 8.65421 41.9077 10.1738 40.9704 11.1111L35.8793 16.2022C34.942 17.1395 33.4224 17.1395 32.4852 16.2022C31.5479 15.265 31.5479 13.7454 32.4852 12.8081L37.5763 7.71697C38.5135 6.77971 40.0331 6.7797 40.9704 7.71695Z" fill="#F08518"/>
<path fill-rule="evenodd" clip-rule="evenodd" d="M32.4857 33.1727C33.4229 32.2354 34.9425 32.2354 35.8798 33.1727L40.9709 38.2638C41.9081 39.201 41.9081 40.7206 40.9709 41.6579C40.0336 42.5952 38.514 42.5952 37.5768 41.6579L32.4857 36.5668C31.5484 35.6295 31.5484 34.1099 32.4857 33.1727Z" fill="#F08518"/>
<path fill-rule="evenodd" clip-rule="evenodd" d="M15.5152 33.1727C16.4524 34.1099 16.4524 35.6295 15.5152 36.5668L10.424 41.6579C9.48674 42.5952 7.96714 42.5952 7.02989 41.6579C6.09263 40.7206 6.09264 39.201 7.0299 38.2638L12.1211 33.1727C13.0583 32.2354 14.5779 32.2354 15.5152 33.1727Z" fill="#F08518"/>
</g>
<defs>
<clipPath id="clip0_4360_197855">
<rect width="48" height="48" fill="white" transform="translate(0 0.6875)"/>
</clipPath>
</defs>
</svg>
