<svg width="32" height="32" viewBox="0 0 32 32" fill="none" xmlns="http://www.w3.org/2000/svg">
<path d="M9.54171 8.66617C9.06702 7.05801 7.77852 7.23427 6.89754 7.98328C4.72739 9.98789 1.90167 14.1955 3.71014 20.2541C5.22473 25.3869 11.5269 28.6693 11.5269 28.6693H4.18024C4.18024 28.6693 0.386844 24.4176 0.0477381 19.4171C-0.381757 13.0948 2.15029 9.10745 5.08905 6.50811C7.84694 4.06287 10.4692 3.33594 10.4692 3.33594L15.8333 20.9109L21.1974 3.33594C21.1974 3.33594 23.8196 4.06287 26.5775 6.50811C29.5163 9.10745 32.0483 13.0948 31.6188 19.4171C31.2797 24.4176 27.4863 28.6693 27.4863 28.6693H20.1397C20.1397 28.6693 26.4413 25.3869 27.9564 20.2541C29.7649 14.1962 26.9392 9.98858 24.769 7.98328C23.8874 7.23427 22.5989 7.05801 22.1249 8.66617C20.4973 13.7989 15.834 28.5053 15.834 28.5053C15.834 28.5053 11.1707 13.794 9.54305 8.66617H9.54171Z" fill="#204982"/>
</svg>
