<svg width="32" height="32" viewBox="0 0 32 32" fill="none" xmlns="http://www.w3.org/2000/svg">
<path d="M0 8C0 3.58172 3.58172 0 8 0H24C28.4183 0 32 3.58172 32 8V24C32 28.4183 28.4183 32 24 32H8C3.58172 32 0 28.4183 0 24V8Z" fill="#8647B2"/>
<path d="M15.248 22.24C14.5173 22.24 13.8267 22.136 13.176 21.928C12.5253 21.72 11.9867 21.432 11.56 21.064L12.32 18.992C12.672 19.344 13.0933 19.6027 13.584 19.768C14.0747 19.928 14.5813 20.008 15.104 20.008C15.5147 20.008 15.8693 19.9493 16.168 19.832C16.472 19.7147 16.704 19.536 16.864 19.296C17.0293 19.056 17.112 18.7547 17.112 18.392C17.112 18.088 17.0267 17.824 16.856 17.6C16.6907 17.376 16.456 17.2053 16.152 17.088C15.8533 16.9653 15.4987 16.904 15.088 16.904C14.8213 16.904 14.5413 16.936 14.248 17C13.9547 17.064 13.6587 17.1627 13.36 17.296L12.272 16.096L12.864 10.808L19.312 10.824V13.088H14.688L14.432 15.048C14.6293 15 14.824 14.9627 15.016 14.936C15.2133 14.9093 15.416 14.896 15.624 14.896C16.3973 14.896 17.08 15.04 17.672 15.328C18.2693 15.616 18.736 16.032 19.072 16.576C19.408 17.1147 19.576 17.76 19.576 18.512C19.576 19.2693 19.3947 19.928 19.032 20.488C18.6747 21.0427 18.1707 21.4747 17.52 21.784C16.8747 22.088 16.1173 22.24 15.248 22.24Z" fill="#FEFEFE"/>
</svg>
