<svg width="24" height="25" viewBox="0 0 24 25" fill="none" xmlns="http://www.w3.org/2000/svg">
<path d="M19.2271 16.1953L16.6871 15.9053C16.3884 15.8702 16.0857 15.9033 15.8017 16.002C15.5176 16.1008 15.2596 16.2626 15.0471 16.4753L13.2071 18.3153C10.3685 16.8713 8.06117 14.5639 6.61711 11.7253L8.46711 9.87532C8.89711 9.44532 9.10711 8.84532 9.03711 8.23532L8.74711 5.71532C8.69063 5.2274 8.45658 4.77734 8.08957 4.45091C7.72257 4.12448 7.24828 3.94451 6.75711 3.94532H5.02711C3.89711 3.94532 2.95711 4.88532 3.02711 6.01532C3.55711 14.5553 10.3871 21.3753 18.9171 21.9053C20.0471 21.9753 20.9871 21.0353 20.9871 19.9053V18.1753C20.9971 17.1653 20.2371 16.3153 19.2271 16.1953Z" fill="#2B2A29"/>
</svg>
