<svg width="20" height="20" viewBox="0 0 20 20" fill="none" xmlns="http://www.w3.org/2000/svg">
<g clip-path="url(#clip0_4681_45786)">
<path d="M19.6913 1.98685C19.4468 1.68808 19.0809 1.52344 18.6608 1.52344C18.4323 1.52344 18.1904 1.57166 17.9417 1.66656L1.01199 8.12909C0.113556 8.47196 -0.00744538 8.98648 0.000336564 9.26282C0.00811851 9.539 0.158112 10.0459 1.07455 10.3373C1.08004 10.3392 1.08554 10.3407 1.09103 10.3424L3.46529 11.0217L15.0284 5.11427C15.3164 4.96688 15.6695 5.08132 15.8168 5.36955C15.9324 5.59599 15.886 5.8621 15.7213 6.03728L15.7217 6.03773L9.2926 12.8689L9.10919 13.6122L11.405 15.4609L14.5865 18.0227C14.5892 18.0248 14.592 18.0271 14.5949 18.0293C14.9449 18.3009 15.3273 18.4443 15.7007 18.4445C16.4303 18.4445 17.0112 17.9044 17.1804 17.0689L19.9543 3.37203C20.0656 2.82241 19.9722 2.33032 19.6913 1.98685Z" fill="#2B2A29"/>
<path d="M8.19428 12.4391C8.21762 12.3444 8.26462 12.254 8.33618 12.1779L12.5548 7.69531L4.72656 11.6946L6.50406 16.7781C6.60538 17.0677 6.75613 17.3143 6.9426 17.5073L8.19397 12.439L8.19428 12.4391Z" fill="#2B2A29"/>
<path d="M8.03125 17.9775C8.45377 17.974 8.86896 17.7958 9.23273 17.4609L10.5332 16.2634L8.79922 14.8672L8.03125 17.9775Z" fill="#2B2A29"/>
</g>
<defs>
<clipPath id="clip0_4681_45786">
<rect width="20" height="20" fill="white"/>
</clipPath>
</defs>
</svg>
