<svg width="24" height="24" viewBox="0 0 24 24" fill="none" xmlns="http://www.w3.org/2000/svg">
<g clip-path="url(#clip0_4681_45796)">
<path d="M21.1507 12.0033C21.0435 12.5416 20.5661 12.9337 19.9937 12.9581C19.8135 12.9654 19.6601 13.0969 19.6259 13.2747C19.5894 13.4525 19.6795 13.6328 19.8427 13.7083C20.3615 13.9518 20.6514 14.4974 20.5418 15.0357L20.4395 15.5472C20.3055 16.2219 19.5601 16.6433 18.9074 16.4826C18.7247 16.4387 18.5372 16.4046 18.352 16.3681C18.0792 16.3145 17.8064 16.2585 17.5336 16.2049C17.1731 16.1318 16.8126 16.0612 16.4522 15.9881C16.0235 15.9029 15.5924 15.8152 15.1637 15.7299C14.6839 15.6325 14.204 15.5375 13.7242 15.4401C13.2127 15.3378 12.6987 15.2355 12.1872 15.1308C11.6611 15.026 11.135 14.9188 10.6113 14.8141C10.0901 14.7094 9.57127 14.6046 9.05 14.4999C8.55313 14.4 8.05622 14.3002 7.55936 14.2003C7.10388 14.1102 6.65084 14.0176 6.19536 13.9275C5.80077 13.8496 5.40618 13.7692 5.01403 13.6912C4.69982 13.6279 4.38561 13.5646 4.06897 13.5013C3.85219 13.4574 3.63539 13.4136 3.41863 13.3698C3.31874 13.3502 3.2189 13.3283 3.11904 13.3089C3.11417 13.3089 3.1093 13.3064 3.1044 13.3064C3.15799 13.5597 3.13363 13.8301 3.01671 14.0834C2.77068 14.6144 2.19829 14.8921 1.64784 14.7849C1.48464 14.7532 1.30684 14.8141 1.2362 14.9651L1.01699 15.4401C0.946374 15.5911 1.01699 15.7665 1.1461 15.8712C1.17046 15.8907 18.7271 23.9846 18.7563 23.9919C18.9195 24.0236 19.0974 23.9627 19.168 23.8116L19.3872 23.3367C19.4578 23.1857 19.3872 23.0103 19.2581 22.9056C18.8197 22.5572 18.6589 21.941 18.9049 21.41C19.1509 20.8791 19.7233 20.6014 20.2738 20.7086C20.437 20.7402 20.6148 20.6793 20.6854 20.5283L20.9046 20.0534C20.9753 19.9023 20.9046 19.727 20.7755 19.6222C20.3371 19.2739 20.1763 18.6577 20.4224 18.1267C20.6684 17.5958 21.2408 17.3181 21.7912 17.4252C21.9544 17.4569 22.1322 17.396 22.2029 17.245L22.4221 16.77C22.4927 16.619 22.4221 16.4436 22.293 16.3389C21.8545 15.9906 21.6938 15.3744 21.9398 14.8434C22.1858 14.3124 22.7582 14.0347 23.3087 14.1419C23.4719 14.1735 23.6497 14.1126 23.7203 13.9617L23.9614 13.4355C24.0321 13.2845 23.9663 13.1067 23.8153 13.0361L21.192 11.8255L21.1507 12.0033Z" fill="#0D0D0D"/>
<path d="M0.230427 11.8352C0.259656 11.8498 19.212 15.6519 19.2437 15.6519C19.4093 15.6446 19.5701 15.5423 19.6017 15.3816L19.704 14.8701C19.7357 14.7069 19.6285 14.551 19.4775 14.4804C18.9709 14.2417 18.6713 13.6815 18.7858 13.1066C18.9002 12.5318 19.3947 12.1299 19.9549 12.1055C20.1205 12.0982 20.2813 11.9959 20.313 11.8352L20.3885 11.4601L20.4153 11.3212C20.4469 11.158 20.3397 11.0022 20.1888 10.9315C19.6821 10.6928 19.3825 10.1326 19.497 9.5578C19.6115 8.98294 20.1059 8.58105 20.6662 8.55669C20.8318 8.54939 20.9925 8.44708 21.0242 8.28633L21.1265 7.77483C21.1582 7.61163 21.051 7.45575 20.9 7.38511C20.3933 7.14641 20.0937 6.58619 20.2082 6.01136C20.3227 5.43653 20.8172 5.03464 21.3774 5.01028C21.543 5.00297 21.7038 4.90067 21.7354 4.73992L21.8499 4.17239C21.8816 4.0092 21.7768 3.85088 21.6137 3.81921C21.6137 3.81921 2.56874 0 2.54926 0C2.40799 0 2.28377 0.0998646 2.25454 0.241137L2.14006 0.80866C2.10839 0.971853 2.21557 1.12774 2.36658 1.19838C2.87321 1.43708 3.1728 1.99729 3.05833 2.57212C2.94385 3.14695 2.44939 3.54885 1.88918 3.5732C1.72353 3.58051 1.56279 3.68281 1.53113 3.84357L1.42883 4.35507C1.39716 4.51826 1.50433 4.67415 1.65535 4.74479C2.16198 4.98349 2.4616 5.5437 2.34709 6.11853C2.23262 6.69337 1.73816 7.09526 1.17795 7.11962C1.01232 7.12692 0.851561 7.22922 0.819897 7.38998L0.717596 7.90148C0.685932 8.06468 0.793128 8.22056 0.944118 8.2912C1.45077 8.5299 1.75037 9.09012 1.63586 9.66495C1.52138 10.2398 1.02693 10.6417 0.466717 10.6661C0.301088 10.6734 0.14033 10.7757 0.108666 10.9364L0.00636538 11.4479C-0.0277591 11.6111 0.0793883 11.7646 0.230427 11.8352ZM16.4645 5.59244C16.5303 5.26362 16.8518 5.04928 17.1806 5.11504C17.5094 5.18081 17.7238 5.50232 17.658 5.83114L16.3598 12.2956C16.3013 12.5854 16.048 12.7852 15.763 12.7852C15.724 12.7852 15.6826 12.7803 15.6437 12.773C15.3149 12.7072 15.1005 12.3857 15.1663 12.0569L16.4645 5.59244ZM5.48428 3.38811C5.55004 3.05929 5.87156 2.84495 6.20038 2.91071C6.5292 2.97648 6.74355 3.29799 6.67778 3.62681L5.382 10.0912C5.32357 10.3811 5.07023 10.5808 4.78525 10.5808C4.74628 10.5808 4.70487 10.576 4.66593 10.5686C4.64888 10.5662 4.63183 10.5613 4.61721 10.5565C4.31518 10.4688 4.12761 10.1643 4.19096 9.85255L4.28106 9.39707L5.48428 3.38811Z" fill="#0D0D0D"/>
</g>
<defs>
<clipPath id="clip0_4681_45796">
<rect width="24" height="24" fill="white"/>
</clipPath>
</defs>
</svg>
