<svg width="20" height="20" viewBox="0 0 20 20" fill="none" xmlns="http://www.w3.org/2000/svg">
<path fill-rule="evenodd" clip-rule="evenodd" d="M17.2129 11.6419C17.8763 12.2896 18.5765 12.8991 19.1715 13.6121C19.4344 13.929 19.6832 14.2559 19.8736 14.6237C20.1433 15.1464 19.899 15.7216 19.4303 15.7528L16.5166 15.7515C15.7652 15.8139 15.1657 15.5114 14.6616 14.9976C14.2582 14.5867 13.8846 14.1493 13.4967 13.7246C13.3377 13.551 13.1713 13.3876 12.9724 13.2585C12.5747 13.0003 12.2294 13.0794 12.0021 13.4942C11.7706 13.9161 11.7181 14.3833 11.6954 14.8536C11.6642 15.5397 11.4568 15.7201 10.7676 15.7515C9.29473 15.8209 7.89691 15.5981 6.59838 14.8551C5.45355 14.2001 4.56579 13.2754 3.79308 12.2285C2.28861 10.1901 1.13649 7.95017 0.101007 5.64751C-0.132073 5.12871 0.0383836 4.85023 0.610798 4.84037C1.56132 4.82191 2.51171 4.82322 3.46334 4.83906C3.84966 4.84471 4.10541 5.06629 4.25458 5.43125C4.76884 6.69574 5.39809 7.89879 6.18794 9.01392C6.39829 9.3108 6.61277 9.60769 6.9182 9.81665C7.25609 10.048 7.51335 9.97133 7.67231 9.59494C7.77317 9.35627 7.81733 9.09921 7.84007 8.84359C7.91537 7.96417 7.9253 7.08626 7.79321 6.20993C7.71213 5.66302 7.40407 5.30896 6.85834 5.20546C6.57985 5.1527 6.62131 5.04907 6.75615 4.89011C6.99035 4.61597 7.21062 4.44531 7.6497 4.44531H10.9426C11.461 4.54763 11.5761 4.78051 11.6471 5.30213L11.6499 8.95983C11.6442 9.16177 11.7508 9.76099 12.1145 9.89465C12.4056 9.9898 12.5975 9.75692 12.7721 9.57233C13.5605 8.73556 14.1232 7.74667 14.6259 6.72268C14.849 6.27242 15.0408 5.80482 15.2267 5.33761C15.3644 4.99092 15.5806 4.82033 15.9711 4.82789L19.1403 4.83071C19.2343 4.83071 19.3294 4.83209 19.4204 4.84767C19.9544 4.93868 20.1007 5.1684 19.9358 5.68989C19.6759 6.50807 19.1703 7.18989 18.6759 7.87487C18.1473 8.60617 17.5821 9.31244 17.058 10.0481C16.5764 10.7199 16.6147 11.0585 17.2129 11.6419Z" fill="black"/>
</svg>
