<svg width="1728" height="982" fill="none" xmlns="http://www.w3.org/2000/svg"><path d="M.997 164.497L99.64 2.991l139.457 232.825 51.679-91.708 114.512 191.645 50.083-90.973 119.685 195.29 110.562 177.045H581.211L490.865 478.94l-98.816 14.467-94.275-149.086-51.639 84.684-50.246-84.684-90.72-147.687-52.517 39.182L.997 277.153V164.497z" fill="#F4F4F4"/><path d="M187.349 415.73l-57.799 41.872L0 495.486V982l581.211-25L1319 837.5 1728 654V0l-163.43 167.488-149.48 131.598-134.49-51.711-226.26 143.431-290.991-39.878-284.013 73.775-190.339-86.735-50.824 39.878-50.824 37.884z" fill="#FBF4E7"/><path fill-rule="evenodd" clip-rule="evenodd" d="M1508.9 185.649h-19.73v19.74h-4.42v-19.74h-19.74v-4.426h19.74v-19.74h4.42v19.74h19.73v4.426z" fill="#F4F4F4"/><path fill-rule="evenodd" clip-rule="evenodd" d="M1055.83 760.622c5.25 0 9.53 4.277 9.53 9.526 0 5.248-4.28 9.525-9.53 9.525-5.24 0-9.52-4.277-9.52-9.525 0-5.249 4.28-9.526 9.52-9.526zm544.11-440.654c5.25 0 9.53 4.277 9.53 9.526s-4.28 9.526-9.53 9.526c-5.24 0-9.52-4.277-9.52-9.526s4.28-9.526 9.52-9.526zM489.8 524.343c5.246 0 9.522 4.277 9.522 9.526s-4.276 9.526-9.522 9.526c-5.247 0-9.522-4.277-9.522-9.526s4.275-9.526 9.522-9.526z" fill="#F8BF5F"/><path fill-rule="evenodd" clip-rule="evenodd" d="M86.699 874.508c4.843 0 8.79 3.948 8.79 8.793 0 4.845-3.947 8.793-8.79 8.793-4.843 0-8.79-3.948-8.79-8.793 0-4.845 3.947-8.793 8.79-8.793z" fill="#D9D9D9"/><path fill-rule="evenodd" clip-rule="evenodd" d="M1509.76 867.296c3.87 0 7.03 3.158 7.03 7.034s-3.16 7.035-7.03 7.035c-3.88 0-7.03-3.159-7.03-7.035 0-3.876 3.15-7.034 7.03-7.034z" fill="#EAEAEA"/><path fill-rule="evenodd" clip-rule="evenodd" d="M112.039 329.695l-5.572-6.816-6.776 5.544 5.572 6.816 6.776-5.544zm9.516-7.786l-5.571-6.816-6.777 5.544 5.572 6.816 6.776-5.544zm1.007 15.064l6.776-5.543-5.542-6.779-6.776 5.543 5.542 6.779zm-9.517 7.786l6.814-5.574-5.542-6.779-6.813 5.574 5.541 6.779zm26.187-12.337l-27.215 22.266-22.227-27.19 27.216-22.266 22.226 27.19z" fill="#FCE3BA"/></svg>