<svg width="1728" height="731" fill="none" xmlns="http://www.w3.org/2000/svg"><path d="M.158 620.892l187.091 44.497 354.172-69.332 414.202 82.785L1495.89 575.36 1728 620.892V88.994l-156.08-55.88-150.07 136.597L1261.77 0l-202.1 130.388-292.138-41.393-285.139 76.577L291.3 75.542.158 194.675v426.217z" fill="#FBF4E7"/><path d="M1728 567.856l-178.09 41.896-348.17-59.851-602.29 101.947-352.172-116.91L.158 567.856V236.431l163.079-23.193 318.155-94.266 202.099 94.266 292.142-29.925 290.137 181.049 340.17-181.05L1728 236.431v331.425z" fill="#FBEEDA"/><path fill-rule="evenodd" clip-rule="evenodd" d="M1226.62 42.098l-8.89 8.89 8.89 8.89-1.97 1.976-8.9-8.89-8.9 8.89-1.97-1.976 8.89-8.89-8.89-8.89 1.97-1.975 8.9 8.89 8.9-8.89 1.97 1.975zM73.06 165.07l-8.896 8.89 8.897 8.89-1.977 1.975-8.897-8.89-8.896 8.89-1.977-1.975 8.896-8.89-8.896-8.89 1.977-1.976 8.896 8.89 8.897-8.89 1.977 1.976zm111.055 382.911l-8.897 8.89 8.897 8.89-1.977 1.975-8.897-8.89-8.896 8.89-1.977-1.975 8.896-8.89-8.896-8.89 1.977-1.976 8.896 8.89 8.897-8.89 1.977 1.976zM1688.2 459.65l-18.81-14.13 14.14-18.795 18.81 14.13-14.14 18.795zm-3.71-26.321l-8.49 11.277 11.29 8.478 8.48-11.277-11.28-8.478zM31.303 721.003L10.005 731 0 709.717l21.299-9.998 10.004 21.284zM6.29 711.96l6.003 12.77 12.779-5.998-6.003-12.77-12.78 5.998zm91.916-405.029c2.755 0 5 2.243 5 4.996a5.006 5.006 0 01-5 4.997c-2.756 0-5-2.243-5-4.997a5.006 5.006 0 015-4.996zM1632.95 633.854c2.76 0 5 2.244 5 4.997a5.003 5.003 0 01-5 4.997c-2.75 0-5-2.243-5-4.997 0-2.753 2.25-4.997 5-4.997z" fill="#F59F0D"/></svg>