<svg width="1728" height="673" viewBox="0 0 1728 673" fill="none" xmlns="http://www.w3.org/2000/svg">
<rect width="1728" height="673" fill="#FEFEFE"/>
<path d="M0 615.549L180 659.663L534 590.927L948 673L1488 570.409L1728 615.549V88.2287L1564 32.8298L1414 168.251L1254 0L1052 129.266L760 88.2292L475 164.147L284 74.8923L0 193V615.549Z" fill="#FBF4E7"/>
<path d="M1728 564.988L1542 606.894L1194 547.029L592 649L240 532.063L0 564.988V233.486L156 210.288L474 116L676 210.288L968 180.355L1258 361.447L1598 180.355L1728 233.486V564.988Z" fill="#FBEEDA"/>
<path d="M1.33301 234.635L156.196 211.606L156.289 211.593L156.379 211.566L473.895 117.422L675.77 211.652L676.136 211.614L967.682 181.728L1257.95 362.986L1598.08 181.825L1726.67 234.381V563.921L1541.96 605.534L1194.23 545.715L1194 545.676L592.106 647.63L240.126 530.699L1.33301 563.459V234.635ZM0 564.988L240 532.062L592 649L1194 547.029L1542 606.894L1728 564.988V233.485L1598 180.355L1258 361.447L968 180.355L676 210.288L474 116L156 210.288L0 233.485V564.988Z" fill="#FBDFC2"/>
</svg>
