<svg width="1728" height="731" viewBox="0 0 1728 731" fill="none" xmlns="http://www.w3.org/2000/svg">
<path d="M0.157577 620.892L187.249 665.389L541.421 596.057L955.623 678.842L1495.89 575.36L1728 620.892V88.9945L1571.92 33.1148L1421.85 169.711L1261.77 0L1059.67 130.388L767.532 88.9951L482.393 165.572L291.3 75.5424L0.157577 194.675V620.892Z" fill="#FBF4E7"/>
<path d="M1728 567.856L1549.91 609.752L1201.74 549.901L599.45 651.848L247.278 534.938L0.157577 567.856V236.431L163.237 213.238L481.392 118.972L683.491 213.238L975.633 183.313L1265.77 364.362L1605.94 183.312L1728 236.431V567.856Z" fill="#FBEEDA"/>
<path fill-rule="evenodd" clip-rule="evenodd" d="M1226.62 42.0984L1217.73 50.9883L1226.62 59.8782L1224.65 61.8538L1215.75 52.9638L1206.85 61.8538L1204.88 59.8782L1213.77 50.9883L1204.88 42.0984L1206.85 40.1228L1215.75 49.0127L1224.65 40.1228L1226.62 42.0984Z" fill="#F59F0D"/>
<path fill-rule="evenodd" clip-rule="evenodd" d="M73.0605 165.07L64.1642 173.96L73.0605 182.85L71.0836 184.825L62.1872 175.935L53.2909 184.825L51.3139 182.85L60.2103 173.96L51.3139 165.07L53.2909 163.094L62.1872 171.984L71.0836 163.094L73.0605 165.07Z" fill="#F59F0D"/>
<path fill-rule="evenodd" clip-rule="evenodd" d="M184.115 547.981L175.218 556.871L184.115 565.761L182.138 567.736L173.241 558.846L164.345 567.736L162.368 565.761L171.264 556.871L162.368 547.981L164.345 546.005L173.241 554.895L182.138 546.005L184.115 547.981Z" fill="#F59F0D"/>
<path fill-rule="evenodd" clip-rule="evenodd" d="M1688.2 459.65L1669.39 445.52L1683.53 426.725L1702.34 440.855L1688.2 459.65ZM1684.49 433.329L1676 444.606L1687.29 453.084L1695.77 441.807L1684.49 433.329Z" fill="#F59F0D"/>
<path fill-rule="evenodd" clip-rule="evenodd" d="M31.3034 721.003L10.0047 731L0 709.717L21.2987 699.719L31.3034 721.003ZM6.28967 711.96L12.2925 724.73L25.0717 718.732L19.0689 705.962L6.28967 711.96Z" fill="#F59F0D"/>
<path fill-rule="evenodd" clip-rule="evenodd" d="M98.2057 306.931C100.961 306.931 103.206 309.174 103.206 311.927C103.206 314.681 100.961 316.924 98.2057 316.924C95.4503 316.924 93.2052 314.681 93.2052 311.927C93.2052 309.174 95.4503 306.931 98.2057 306.931Z" fill="#F59F0D"/>
<path fill-rule="evenodd" clip-rule="evenodd" d="M1632.95 633.854C1635.71 633.854 1637.95 636.098 1637.95 638.851C1637.95 641.605 1635.71 643.848 1632.95 643.848C1630.2 643.848 1627.95 641.605 1627.95 638.851C1627.95 636.098 1630.2 633.854 1632.95 633.854Z" fill="#F59F0D"/>
</svg>
